<svg height="512" viewBox="0 0 512 512" width="512" xmlns="http://www.w3.org/2000/svg"><g id="Flat"><path d="m464 232v27.8a829.693 829.693 0 0 1 -32 228.2h-352a829.873 829.873 0 0 1 -32-228.2v-27.8c0-114.88 93.12-208 208-208a207.994 207.994 0 0 1 208 208z" fill="#f88400"/><path d="m408 224v112a151.291 151.291 0 0 1 -32 93.31 153.223 153.223 0 0 1 -26.69 26.69 152.043 152.043 0 0 1 -186.62 0 153.223 153.223 0 0 1 -26.69-26.69 151.291 151.291 0 0 1 -32-93.31v-112s3.24 0 9.08-.64c29.71-3.25 126.7-23.02 206.92-143.36l81.98 134.14z" fill="#fdc8a2"/><circle cx="176" cy="264" fill="#91563a" r="24"/><circle cx="336" cy="264" fill="#91563a" r="24"/><path d="m211.669 288h48.662v16h-48.662z" fill="#fdb683" transform="matrix(.164 -.986 .986 .164 -94.765 480.137)"/><path d="m105.324 183.89-2.648-15.78 1.324 7.89-1.331-7.889c.27-.046 27.409-4.767 59.187-20.5 28.929-14.323 67.83-41.033 88.872-86.942l14.544 6.666c-18.266 39.854-51.731 72.65-96.778 94.843-33.817 16.659-61.987 21.513-63.17 21.712z" fill="#ef7800"/><g fill="#85ccd5"><path d="m408 224v20.63l-38.81 107.75-15.05-5.42 47.84-132.82z"/><path d="m155.86 342.29-15.05 5.42-36.81-102.34v-21.37s3.24 0 9.08-.64z"/><path d="m376 312v117.31a153.223 153.223 0 0 1 -26.69 26.69h-186.62a153.223 153.223 0 0 1 -26.69-26.69v-117.31z"/></g><path d="m136 352h240v16h-240z" fill="#7cc1c9"/><path d="m136 400h240v16h-240z" fill="#7cc1c9"/><path d="m408 336v-112a56 56 0 0 1 56 56 56 56 0 0 1 -56 56z" fill="#fdb683"/><path d="m104 336v-112a56 56 0 0 0 -56 56 56 56 0 0 0 56 56z" fill="#fdb683"/><path d="m371.884 217.939a69.617 69.617 0 0 0 -71.768 0l-8.232-13.719a85.587 85.587 0 0 1 88.232 0z" fill="#f88400"/><path d="m137.66 488h-19.12c-12.44-20.72-18.6-44.96-18.87-46.06l15.52-3.88c.06.26 6.71 26.37 19.47 45.5z" fill="#ef7800"/><path d="m412.33 441.94c-.27 1.1-6.43 25.37-18.86 46.06h-19.44l3.43-4.61c12.72-19.18 19.29-45.07 19.35-45.33z" fill="#ef7800"/><path d="m212.884 217.94a69.617 69.617 0 0 0 -71.768 0l-8.232-13.72a85.587 85.587 0 0 1 88.232 0z" fill="#f88400"/></g></svg>