<svg xmlns="http://www.w3.org/2000/svg" xmlns:xlink="http://www.w3.org/1999/xlink" version="1.1" x="0px" y="0px" viewBox="0 0 24 30" enable-background="new 0 0 24 24" xml:space="preserve"><g><circle cx="2.5" cy="20.5" r="2.5"/><circle cx="8.5" cy="20.5" r="2.5"/><circle cx="14.5" cy="20.5" r="2.5"/><circle cx="20.5" cy="20.5" r="2.5"/><circle cx="2.5" cy="14.5" r="2.5"/><circle cx="8.5" cy="14.5" r="2.5"/><path d="M14.5,12c-1.381,0-2.5,1.119-2.5,2.5s1.119,2.5,2.5,2.5s2.5-1.119,2.5-2.5S15.881,12,14.5,12z M14.5,16   c-0.827,0-1.5-0.673-1.5-1.5s0.673-1.5,1.5-1.5s1.5,0.673,1.5,1.5S15.327,16,14.5,16z"/><circle cx="20.5" cy="14.5" r="2.5"/><circle cx="2.5" cy="8.5" r="2.5"/><circle cx="8.5" cy="8.5" r="2.5"/><circle cx="14.5" cy="8.5" r="2.5"/><circle cx="20.5" cy="8.5" r="2.5"/><circle cx="2.5" cy="2.5" r="2.5"/><circle cx="8.5" cy="2.5" r="2.5"/><circle cx="14.5" cy="2.5" r="2.5"/><circle cx="20.5" cy="2.5" r="2.5"/></g><text x="0" y="39" fill="#000000" font-size="5px" font-weight="bold" font-family="'Helvetica Neue', Helvetica, Arial-Unicode, Arial, Sans-serif">Created by Rflor</text><text x="0" y="44" fill="#000000" font-size="5px" font-weight="bold" font-family="'Helvetica Neue', Helvetica, Arial-Unicode, Arial, Sans-serif">from the Noun Project</text></svg>